<?xml version="1.0" standalone="no"?>
<!DOCTYPE svg PUBLIC "-//W3C//DTD SVG 20010904//EN"
 "http://www.w3.org/TR/2001/REC-SVG-20010904/DTD/svg10.dtd">
<svg version="1.0" xmlns="http://www.w3.org/2000/svg"
 width="110.000000pt" height="110.000000pt" viewBox="0 0 110.000000 110.000000"
 preserveAspectRatio="xMidYMid meet">
<metadata>
Created by potrace 1.14, written by Peter Selinger 2001-2017
</metadata>
<g transform="translate(0.000000,110.000000) scale(0.100000,-0.100000)"
fill="#000000" stroke="none">
<path d="M415 957 c-108 -63 -142 -101 -160 -180 l-11 -52 -120 0 -119 0 -1
-193 c0 -106 3 -195 7 -198 7 -4 415 -6 914 -4 l140 0 0 195 c0 122 -4 196
-10 196 -5 1 -82 3 -170 4 -88 2 -165 3 -171 4 -6 0 -14 19 -18 42 -4 23 -13
53 -21 68 -20 40 -91 101 -125 108 -16 3 -28 8 -25 12 7 13 -67 12 -83 -1 -12
-10 -14 -10 -8 0 9 14 7 14 -19 -1z"/>
<path d="M0 238 c1 -42 1 -42 15 -18 7 14 16 23 18 20 3 -3 9 -2 13 3 4 4 -3
7 -15 7 -12 0 -19 4 -16 10 4 6 10 8 15 5 5 -3 11 -1 15 5 4 6 -5 10 -19 10
-24 0 -26 -3 -26 -42z"/>
<path d="M112 263 c-12 -21 5 -63 26 -63 14 0 41 27 42 42 0 12 -31 38 -45 38
-8 0 -18 -8 -23 -17z m48 -23 c0 -21 -24 -28 -35 -10 -8 14 3 30 21 30 8 0 14
-9 14 -20z"/>
<path d="M234 266 c-14 -38 26 -87 46 -56 13 21 13 73 0 65 -6 -4 -10 -16 -8
-28 2 -14 -2 -22 -12 -22 -10 0 -14 8 -12 28 4 29 -5 37 -14 13z"/>
<path d="M356 273 c-10 -10 -7 -73 3 -73 6 0 8 9 6 20 -5 26 12 26 20 0 10
-30 25 -14 25 26 0 20 -4 33 -10 29 -5 -3 -7 -13 -4 -23 4 -13 1 -11 -14 5
-11 12 -22 19 -26 16z"/>
<path d="M477 274 c-4 -4 -7 -23 -7 -41 0 -29 3 -34 21 -31 30 4 47 33 33 56
-12 19 -36 27 -47 16z m38 -33 c0 -23 -22 -24 -28 -1 -4 16 -1 20 11 18 9 -2
17 -10 17 -17z"/>
<path d="M597 246 c-18 -38 -13 -53 10 -30 14 13 17 13 29 -3 7 -10 14 -14 14
-9 0 16 -24 76 -30 76 -4 0 -14 -15 -23 -34z"/>
<path d="M700 270 c0 -5 5 -10 11 -10 6 0 9 -6 6 -12 -2 -7 -1 -22 4 -33 6
-16 8 -14 8 13 1 17 6 32 11 32 6 0 10 5 10 10 0 6 -11 10 -25 10 -14 0 -25
-4 -25 -10z"/>
<path d="M810 238 c0 -23 2 -39 5 -36 10 10 13 78 4 78 -5 0 -9 -19 -9 -42z"/>
<path d="M890 265 c-15 -19 1 -65 23 -65 34 0 52 62 21 74 -23 9 -30 8 -44 -9z
m43 -31 c-8 -20 -33 -17 -33 4 0 10 3 22 7 25 10 11 32 -13 26 -29z"/>
<path d="M1010 240 c0 -31 3 -41 9 -30 6 8 7 19 4 25 -4 5 6 -1 20 -14 l27
-24 0 41 c0 23 -4 42 -10 42 -5 0 -10 -10 -10 -22 l0 -23 -20 25 -20 25 0 -45z"/>
</g>
</svg>
